ffmpeg started on 2026-04-01 at 13:23:54
Report written to "D:\Convert\FFMetrics\reports\ssim_report-6.txt"
Log level: 32
Command line:
ffmpeg -hide_banner -nostdin -r 24000/1001 -i "F:\\Convert\\files\\[DC] Make Heroine ga Oosugiru - 07_Telegram_HEVC(303).mkv" -r 24000/1001 -i "F:\\Convert\\files\\[DC] Make Heroine ga Oosugiru - 07_Telegram.mp4" -lavfi "[0:v]settb=AVTB,setpts=PTS-STARTPTS,format=pix_fmts=yuv420p10le,fps=24000/1001,scale=1920:1080:flags=lanczos:param0=3:out_range=limited:out_color_matrix=bt709:out_chroma_loc=left,setsar=1/1,setdar=(1920/1080)*(1/1),colorspace=format=yuv420p10:range=tv:primaries=bt709:trc=bt709:space=bt709:fast=0[main];[1:v]settb=AVTB,setpts=PTS-STARTPTS,format=pix_fmts=yuv420p,fps=24000/1001,scale=1920:1080:flags=lanczos:param0=3:out_range=limited:out_color_matrix=bt709:out_chroma_loc=left,setsar=1/1,setdar=(1920/1080)*(1/1),colorspace=format=yuv420p:range=tv:primaries=bt709:trc=bt709:space=bt709:fast=0[ref];[main][ref]ssim=eof_action=endall:stats_file='D\\:/Convert/FFMetrics/logs/ssim_logfile-6.txt'" -f null -
Input #0, matroska,webm, from 'F:\Convert\files\[DC] Make Heroine ga Oosugiru - 07_Telegram_HEVC(303).mkv':
  Metadata:
    COMPATIBLE_BRANDS: isomiso2avc1mp41
    MAJOR_BRAND     : isom
    MINOR_VERSION   : 512
    ENCODER         : Lavf61.7.100
  Duration: 00:24:06.79, start: -0.021000, bitrate: 905 kb/s
  Stream #0:0: Video: hevc (Main 10), yuv420p10le(tv, bt709, progressive), 1920x1080 [SAR 1:1 DAR 16:9], 23.98 fps, 23.98 tbr, 1k tbn (default)
      Metadata:
        HANDLER_NAME    : VideoHandler
        VENDOR_ID       : [0][0][0][0]
        ENCODER         : Lavc61.19.100 libx265
        BPS             : 708248
        DURATION        : 00:24:06.569708333
        NUMBER_OF_FRAMES: 34683
        NUMBER_OF_BYTES : 128066283
        _STATISTICS_WRITING_APP: mkvpropedit v94.0 ('Initiate') 64-bit
        _STATISTICS_WRITING_DATE_UTC: 2026-03-31 09:43:39
        _STATISTICS_TAGS: BPS DURATION NUMBER_OF_FRAMES NUMBER_OF_BYTES
  Stream #0:1: Audio: aac (LC), 48000 Hz, stereo, fltp (default)
      Metadata:
        HANDLER_NAME    : SoundHandler
        VENDOR_ID       : [0][0][0][0]
        ENCODER         : Lavc61.19.100 aac
        BPS             : 193194
        DURATION        : 00:24:06.784000000
        NUMBER_OF_FRAMES: 67819
        NUMBER_OF_BYTES : 34938755
        _STATISTICS_WRITING_APP: mkvpropedit v94.0 ('Initiate') 64-bit
        _STATISTICS_WRITING_DATE_UTC: 2026-03-31 09:43:39
        _STATISTICS_TAGS: BPS DURATION NUMBER_OF_FRAMES NUMBER_OF_BYTES
Input #1, mov,mp4,m4a,3gp,3g2,mj2, from 'F:\Convert\files\[DC] Make Heroine ga Oosugiru - 07_Telegram.mp4':
  Metadata:
    major_brand     : isom
    minor_version   : 512
    compatible_brands: isomiso2avc1mp41
    encoder         : Lavf60.16.100
  Duration: 00:24:06.74, start: 0.000000, bitrate: 3764 kb/s
  Stream #1:0[0x1](und): Video: h264 (High) (avc1 / 0x31637661), yuv420p(tv, bt709, progressive), 1920x1080 [SAR 1:1 DAR 16:9], 3616 kb/s, 23.98 fps, 23.98 tbr, 24k tbn (default)
      Metadata:
        handler_name    : VideoHandler
        vendor_id       : [0][0][0][0]
        encoder         : Lavc60.31.102 h264_qsv
  Stream #1:1[0x2](und): Audio: aac (HE-AACv2) (mp4a / 0x6134706D), 48000 Hz, stereo, fltp, 144 kb/s (default)
      Metadata:
        handler_name    : SoundHandler
        vendor_id       : [0][0][0][0]
Stream mapping:
  Stream #0:0 (hevc) -> settb:default
  Stream #1:0 (h264) -> settb:default
  ssim:default -> Stream #0:0 (wrapped_avframe)
  Stream #0:1 -> #0:1 (aac (native) -> pcm_s16le (native))
Output #0, null, to 'pipe:':
  Metadata:
    COMPATIBLE_BRANDS: isomiso2avc1mp41
    MAJOR_BRAND     : isom
    MINOR_VERSION   : 512
    encoder         : Lavf61.7.100
  Stream #0:0: Video: wrapped_avframe, yuv420p10le(tv, bt709, progressive), 1920x1080 [SAR 1:1 DAR 16:9], q=2-31, 200 kb/s, 23.98 fps, 23.98 tbn
      Metadata:
        encoder         : Lavc61.19.100 wrapped_avframe
  Stream #0:1: Audio: pcm_s16le, 48000 Hz, stereo, s16, 1536 kb/s (default)
      Metadata:
        HANDLER_NAME    : SoundHandler
        VENDOR_ID       : [0][0][0][0]
        _STATISTICS_TAGS: BPS DURATION NUMBER_OF_FRAMES NUMBER_OF_BYTES
        BPS             : 193194
        DURATION        : 00:24:06.784000000
        NUMBER_OF_FRAMES: 67819
        NUMBER_OF_BYTES : 34938755
        _STATISTICS_WRITING_APP: mkvpropedit v94.0 ('Initiate') 64-bit
        _STATISTICS_WRITING_DATE_UTC: 2026-03-31 09:43:39
        encoder         : Lavc61.19.100 pcm_s16le
frame=  111 fps=0.0 q=-0.0 size=N/A time=00:00:04.62 bitrate=N/A speed=8.97x    frame=  296 fps=288 q=-0.0 size=N/A time=00:00:12.34 bitrate=N/A speed=  12x    frame=  473 fps=308 q=-0.0 size=N/A time=00:00:19.72 bitrate=N/A speed=12.8x    frame=  658 fps=320 q=-0.0 size=N/A time=00:00:27.44 bitrate=N/A speed=13.3x    frame=  836 fps=324 q=-0.0 size=N/A time=00:00:34.86 bitrate=N/A speed=13.5x    frame=  980 fps=317 q=-0.0 size=N/A time=00:00:40.87 bitrate=N/A speed=13.2x    frame= 1133 fps=315 q=-0.0 size=N/A time=00:00:47.25 bitrate=N/A speed=13.1x    frame= 1293 fps=314 q=-0.0 size=N/A time=00:00:53.92 bitrate=N/A speed=13.1x    frame= 1454 fps=314 q=-0.0 size=N/A time=00:01:00.64 bitrate=N/A speed=13.1x    frame= 1595 fps=310 q=-0.0 size=N/A time=00:01:06.52 bitrate=N/A speed=12.9x    frame= 1750 fps=309 q=-0.0 size=N/A time=00:01:12.98 bitrate=N/A speed=12.9x    frame= 1906 fps=309 q=-0.0 size=N/A time=00:01:19.49 bitrate=N/A speed=12.9x    frame= 2055 fps=307 q=-0.0 size=N/A time=00:01:25.71 bitrate=N/A speed=12.8x    frame= 2175 fps=302 q=-0.0 size=N/A time=00:01:30.71 bitrate=N/A speed=12.6x    frame= 2334 fps=302 q=-0.0 size=N/A time=00:01:37.34 bitrate=N/A speed=12.6x    frame= 2467 fps=299 q=-0.0 size=N/A time=00:01:42.89 bitrate=N/A speed=12.5x    frame= 2606 fps=298 q=-0.0 size=N/A time=00:01:48.69 bitrate=N/A speed=12.4x    frame= 2783 fps=300 q=-0.0 size=N/A time=00:01:56.07 bitrate=N/A speed=12.5x    frame= 2951 fps=301 q=-0.0 size=N/A time=00:02:03.08 bitrate=N/A speed=12.6x    frame= 3132 fps=304 q=-0.0 size=N/A time=00:02:10.63 bitrate=N/A speed=12.7x    frame= 3316 fps=306 q=-0.0 size=N/A time=00:02:18.30 bitrate=N/A speed=12.8x    frame= 3497 fps=308 q=-0.0 size=N/A time=00:02:25.85 bitrate=N/A speed=12.9x    frame= 3678 fps=310 q=-0.0 size=N/A time=00:02:33.40 bitrate=N/A speed=12.9x    frame= 3858 fps=312 q=-0.0 size=N/A time=00:02:40.91 bitrate=N/A speed=  13x    frame= 4041 fps=313 q=-0.0 size=N/A time=00:02:48.54 bitrate=N/A speed=13.1x    frame= 4226 fps=315 q=-0.0 size=N/A time=00:02:56.25 bitrate=N/A speed=13.2x    frame= 4405 fps=317 q=-0.0 size=N/A time=00:03:03.72 bitrate=N/A speed=13.2x    frame= 4585 fps=318 q=-0.0 size=N/A time=00:03:11.23 bitrate=N/A speed=13.3x    frame= 4775 fps=319 q=-0.0 size=N/A time=00:03:19.15 bitrate=N/A speed=13.3x    frame= 4957 fps=321 q=-0.0 size=N/A time=00:03:26.74 bitrate=N/A speed=13.4x    frame= 5137 fps=322 q=-0.0 size=N/A time=00:03:34.25 bitrate=N/A speed=13.4x    frame= 5325 fps=323 q=-0.0 size=N/A time=00:03:42.09 bitrate=N/A speed=13.5x    frame= 5504 fps=324 q=-0.0 size=N/A time=00:03:49.56 bitrate=N/A speed=13.5x    frame= 5686 fps=325 q=-0.0 size=N/A time=00:03:57.15 bitrate=N/A speed=13.5x    frame= 5868 fps=325 q=-0.0 size=N/A time=00:04:04.74 bitrate=N/A speed=13.6x    frame= 6044 fps=326 q=-0.0 size=N/A time=00:04:12.08 bitrate=N/A speed=13.6x    frame= 6224 fps=326 q=-0.0 size=N/A time=00:04:19.59 bitrate=N/A speed=13.6x    frame= 6405 fps=327 q=-0.0 size=N/A time=00:04:27.14 bitrate=N/A speed=13.6x    frame= 6586 fps=328 q=-0.0 size=N/A time=00:04:34.69 bitrate=N/A speed=13.7x    frame= 6771 fps=328 q=-0.0 size=N/A time=00:04:42.40 bitrate=N/A speed=13.7x    frame= 6952 fps=329 q=-0.0 size=N/A time=00:04:49.95 bitrate=N/A speed=13.7x    frame= 7126 fps=329 q=-0.0 size=N/A time=00:04:57.21 bitrate=N/A speed=13.7x    frame= 7314 fps=330 q=-0.0 size=N/A time=00:05:05.05 bitrate=N/A speed=13.8x    frame= 7488 fps=330 q=-0.0 size=N/A time=00:05:12.31 bitrate=N/A speed=13.8x    frame= 7668 fps=331 q=-0.0 size=N/A time=00:05:19.81 bitrate=N/A speed=13.8x    frame= 7842 fps=331 q=-0.0 size=N/A time=00:05:27.07 bitrate=N/A speed=13.8x    frame= 8015 fps=331 q=-0.0 size=N/A time=00:05:34.29 bitrate=N/A speed=13.8x    frame= 8192 fps=331 q=-0.0 size=N/A time=00:05:41.67 bitrate=N/A speed=13.8x    frame= 8374 fps=332 q=-0.0 size=N/A time=00:05:49.26 bitrate=N/A speed=13.8x    frame= 8557 fps=332 q=-0.0 size=N/A time=00:05:56.89 bitrate=N/A speed=13.8x    frame= 8736 fps=332 q=-0.0 size=N/A time=00:06:04.36 bitrate=N/A speed=13.9x    frame= 8912 fps=333 q=-0.0 size=N/A time=00:06:11.70 bitrate=N/A speed=13.9x    frame= 9095 fps=333 q=-0.0 size=N/A time=00:06:19.33 bitrate=N/A speed=13.9x    frame= 9275 fps=333 q=-0.0 size=N/A time=00:06:26.84 bitrate=N/A speed=13.9x    frame= 9458 fps=334 q=-0.0 size=N/A time=00:06:34.47 bitrate=N/A speed=13.9x    frame= 9638 fps=334 q=-0.0 size=N/A time=00:06:41.98 bitrate=N/A speed=13.9x    frame= 9821 fps=334 q=-0.0 size=N/A time=00:06:49.61 bitrate=N/A speed=13.9x    frame= 9999 fps=334 q=-0.0 size=N/A time=00:06:57.04 bitrate=N/A speed=  14x    frame=10180 fps=335 q=-0.0 size=N/A time=00:07:04.59 bitrate=N/A speed=  14x    frame=10356 fps=335 q=-0.0 size=N/A time=00:07:11.93 bitrate=N/A speed=  14x    frame=10528 fps=335 q=-0.0 size=N/A time=00:07:19.10 bitrate=N/A speed=  14x    frame=10701 fps=335 q=-0.0 size=N/A time=00:07:26.32 bitrate=N/A speed=  14x    frame=10876 fps=335 q=-0.0 size=N/A time=00:07:33.61 bitrate=N/A speed=  14x    frame=11051 fps=335 q=-0.0 size=N/A time=00:07:40.91 bitrate=N/A speed=  14x    frame=11220 fps=335 q=-0.0 size=N/A time=00:07:47.96 bitrate=N/A speed=  14x    frame=11400 fps=335 q=-0.0 size=N/A time=00:07:55.47 bitrate=N/A speed=  14x    frame=11562 fps=335 q=-0.0 size=N/A time=00:08:02.23 bitrate=N/A speed=  14x    frame=11754 fps=335 q=-0.0 size=N/A time=00:08:10.23 bitrate=N/A speed=  14x    frame=11923 fps=335 q=-0.0 size=N/A time=00:08:17.28 bitrate=N/A speed=  14x    frame=12100 fps=335 q=-0.0 size=N/A time=00:08:24.67 bitrate=N/A speed=  14x    frame=12280 fps=335 q=-0.0 size=N/A time=00:08:32.17 bitrate=N/A speed=  14x    frame=12450 fps=335 q=-0.0 size=N/A time=00:08:39.26 bitrate=N/A speed=  14x    frame=12630 fps=336 q=-0.0 size=N/A time=00:08:46.77 bitrate=N/A speed=  14x    frame=12810 fps=336 q=-0.0 size=N/A time=00:08:54.28 bitrate=N/A speed=  14x    frame=12983 fps=336 q=-0.0 size=N/A time=00:09:01.49 bitrate=N/A speed=  14x    frame=13155 fps=336 q=-0.0 size=N/A time=00:09:08.67 bitrate=N/A speed=  14x    frame=13337 fps=336 q=-0.0 size=N/A time=00:09:16.26 bitrate=N/A speed=  14x    frame=13507 fps=336 q=-0.0 size=N/A time=00:09:23.35 bitrate=N/A speed=  14x    frame=13681 fps=336 q=-0.0 size=N/A time=00:09:30.61 bitrate=N/A speed=  14x    frame=13859 fps=336 q=-0.0 size=N/A time=00:09:38.03 bitrate=N/A speed=  14x    frame=14027 fps=336 q=-0.0 size=N/A time=00:09:45.04 bitrate=N/A speed=  14x    frame=14206 fps=336 q=-0.0 size=N/A time=00:09:52.50 bitrate=N/A speed=  14x    frame=14383 fps=336 q=-0.0 size=N/A time=00:09:59.89 bitrate=N/A speed=  14x    frame=14559 fps=336 q=-0.0 size=N/A time=00:10:07.23 bitrate=N/A speed=  14x    frame=14739 fps=336 q=-0.0 size=N/A time=00:10:14.73 bitrate=N/A speed=  14x    frame=14920 fps=336 q=-0.0 size=N/A time=00:10:22.28 bitrate=N/A speed=  14x    frame=15088 fps=336 q=-0.0 size=N/A time=00:10:29.29 bitrate=N/A speed=  14x    frame=15254 fps=336 q=-0.0 size=N/A time=00:10:36.21 bitrate=N/A speed=  14x    frame=15423 fps=336 q=-0.0 size=N/A time=00:10:43.26 bitrate=N/A speed=  14x    frame=15606 fps=336 q=-0.0 size=N/A time=00:10:50.90 bitrate=N/A speed=  14x    frame=15792 fps=336 q=-0.0 size=N/A time=00:10:58.65 bitrate=N/A speed=  14x    frame=15970 fps=336 q=-0.0 size=N/A time=00:11:06.08 bitrate=N/A speed=  14x    frame=16150 fps=337 q=-0.0 size=N/A time=00:11:13.58 bitrate=N/A speed=  14x    frame=16333 fps=337 q=-0.0 size=N/A time=00:11:21.22 bitrate=N/A speed=  14x    frame=16513 fps=337 q=-0.0 size=N/A time=00:11:28.72 bitrate=N/A speed=14.1x    frame=16690 fps=337 q=-0.0 size=N/A time=00:11:36.11 bitrate=N/A speed=14.1x    frame=16881 fps=337 q=-0.0 size=N/A time=00:11:44.07 bitrate=N/A speed=14.1x    frame=17061 fps=337 q=-0.0 size=N/A time=00:11:51.58 bitrate=N/A speed=14.1x    frame=17247 fps=338 q=-0.0 size=N/A time=00:11:59.34 bitrate=N/A speed=14.1x    frame=17431 fps=338 q=-0.0 size=N/A time=00:12:07.01 bitrate=N/A speed=14.1x    frame=17608 fps=338 q=-0.0 size=N/A time=00:12:14.40 bitrate=N/A speed=14.1x    frame=17783 fps=338 q=-0.0 size=N/A time=00:12:21.69 bitrate=N/A speed=14.1x    frame=17969 fps=338 q=-0.0 size=N/A time=00:12:29.45 bitrate=N/A speed=14.1x    frame=18151 fps=338 q=-0.0 size=N/A time=00:12:37.04 bitrate=N/A speed=14.1x    frame=18321 fps=338 q=-0.0 size=N/A time=00:12:44.13 bitrate=N/A speed=14.1x    frame=18498 fps=338 q=-0.0 size=N/A time=00:12:51.52 bitrate=N/A speed=14.1x    frame=18688 fps=338 q=-0.0 size=N/A time=00:12:59.44 bitrate=N/A speed=14.1x    frame=18865 fps=339 q=-0.0 size=N/A time=00:13:06.82 bitrate=N/A speed=14.1x    frame=19049 fps=339 q=-0.0 size=N/A time=00:13:14.50 bitrate=N/A speed=14.1x    frame=19234 fps=339 q=-0.0 size=N/A time=00:13:22.21 bitrate=N/A speed=14.1x    frame=19413 fps=339 q=-0.0 size=N/A time=00:13:29.68 bitrate=N/A speed=14.1x    frame=19592 fps=339 q=-0.0 size=N/A time=00:13:37.14 bitrate=N/A speed=14.1x    frame=19779 fps=339 q=-0.0 size=N/A time=00:13:44.94 bitrate=N/A speed=14.2x    frame=19965 fps=339 q=-0.0 size=N/A time=00:13:52.70 bitrate=N/A speed=14.2x    frame=20145 fps=339 q=-0.0 size=N/A time=00:14:00.21 bitrate=N/A speed=14.2x    frame=20326 fps=340 q=-0.0 size=N/A time=00:14:07.76 bitrate=N/A speed=14.2x    frame=20497 fps=340 q=-0.0 size=N/A time=00:14:14.89 bitrate=N/A speed=14.2x    frame=20665 fps=339 q=-0.0 size=N/A time=00:14:21.90 bitrate=N/A speed=14.2x    frame=20846 fps=339 q=-0.0 size=N/A time=00:14:29.45 bitrate=N/A speed=14.2x    frame=21024 fps=340 q=-0.0 size=N/A time=00:14:36.87 bitrate=N/A speed=14.2x    frame=21203 fps=340 q=-0.0 size=N/A time=00:14:44.34 bitrate=N/A speed=14.2x    frame=21385 fps=340 q=-0.0 size=N/A time=00:14:51.93 bitrate=N/A speed=14.2x    frame=21563 fps=340 q=-0.0 size=N/A time=00:14:59.35 bitrate=N/A speed=14.2x    frame=21744 fps=340 q=-0.0 size=N/A time=00:15:06.90 bitrate=N/A speed=14.2x    frame=21930 fps=340 q=-0.0 size=N/A time=00:15:14.66 bitrate=N/A speed=14.2x    frame=22108 fps=340 q=-0.0 size=N/A time=00:15:22.08 bitrate=N/A speed=14.2x    frame=22286 fps=340 q=-0.0 size=N/A time=00:15:29.51 bitrate=N/A speed=14.2x    frame=22466 fps=340 q=-0.0 size=N/A time=00:15:37.01 bitrate=N/A speed=14.2x    frame=22647 fps=340 q=-0.0 size=N/A time=00:15:44.56 bitrate=N/A speed=14.2x    frame=22820 fps=340 q=-0.0 size=N/A time=00:15:51.78 bitrate=N/A speed=14.2x    frame=23001 fps=340 q=-0.0 size=N/A time=00:15:59.33 bitrate=N/A speed=14.2x    frame=23177 fps=340 q=-0.0 size=N/A time=00:16:06.67 bitrate=N/A speed=14.2x    frame=23353 fps=340 q=-0.0 size=N/A time=00:16:14.01 bitrate=N/A speed=14.2x    frame=23541 fps=340 q=-0.0 size=N/A time=00:16:21.85 bitrate=N/A speed=14.2x    frame=23718 fps=341 q=-0.0 size=N/A time=00:16:29.23 bitrate=N/A speed=14.2x    frame=23899 fps=341 q=-0.0 size=N/A time=00:16:36.78 bitrate=N/A speed=14.2x    frame=24086 fps=341 q=-0.0 size=N/A time=00:16:44.58 bitrate=N/A speed=14.2x    frame=24266 fps=341 q=-0.0 size=N/A time=00:16:52.09 bitrate=N/A speed=14.2x    frame=24442 fps=341 q=-0.0 size=N/A time=00:16:59.43 bitrate=N/A speed=14.2x    frame=24629 fps=341 q=-0.0 size=N/A time=00:17:07.23 bitrate=N/A speed=14.2x    frame=24804 fps=341 q=-0.0 size=N/A time=00:17:14.53 bitrate=N/A speed=14.2x    frame=24984 fps=341 q=-0.0 size=N/A time=00:17:22.04 bitrate=N/A speed=14.2x    frame=25162 fps=341 q=-0.0 size=N/A time=00:17:29.46 bitrate=N/A speed=14.2x    frame=25351 fps=341 q=-0.0 size=N/A time=00:17:37.34 bitrate=N/A speed=14.2x    frame=25530 fps=341 q=-0.0 size=N/A time=00:17:44.81 bitrate=N/A speed=14.2x    frame=25710 fps=341 q=-0.0 size=N/A time=00:17:52.32 bitrate=N/A speed=14.2x    frame=25895 fps=341 q=-0.0 size=N/A time=00:18:00.03 bitrate=N/A speed=14.2x    frame=26074 fps=341 q=-0.0 size=N/A time=00:18:07.50 bitrate=N/A speed=14.2x    frame=26253 fps=342 q=-0.0 size=N/A time=00:18:14.96 bitrate=N/A speed=14.2x    frame=26441 fps=342 q=-0.0 size=N/A time=00:18:22.81 bitrate=N/A speed=14.2x    frame=26626 fps=342 q=-0.0 size=N/A time=00:18:30.52 bitrate=N/A speed=14.3x    frame=26807 fps=342 q=-0.0 size=N/A time=00:18:38.07 bitrate=N/A speed=14.3x    frame=26989 fps=342 q=-0.0 size=N/A time=00:18:45.66 bitrate=N/A speed=14.3x    frame=27156 fps=342 q=-0.0 size=N/A time=00:18:52.63 bitrate=N/A speed=14.3x    frame=27332 fps=342 q=-0.0 size=N/A time=00:18:59.97 bitrate=N/A speed=14.3x    frame=27512 fps=342 q=-0.0 size=N/A time=00:19:07.47 bitrate=N/A speed=14.3x    frame=27692 fps=342 q=-0.0 size=N/A time=00:19:14.98 bitrate=N/A speed=14.3x    frame=27867 fps=342 q=-0.0 size=N/A time=00:19:22.28 bitrate=N/A speed=14.3x    frame=28048 fps=342 q=-0.0 size=N/A time=00:19:29.83 bitrate=N/A speed=14.3x    frame=28229 fps=342 q=-0.0 size=N/A time=00:19:37.38 bitrate=N/A speed=14.3x    frame=28419 fps=342 q=-0.0 size=N/A time=00:19:45.30 bitrate=N/A speed=14.3x    frame=28594 fps=342 q=-0.0 size=N/A time=00:19:52.60 bitrate=N/A speed=14.3x    frame=28765 fps=342 q=-0.0 size=N/A time=00:19:59.74 bitrate=N/A speed=14.3x    frame=28939 fps=342 q=-0.0 size=N/A time=00:20:06.99 bitrate=N/A speed=14.3x    frame=29108 fps=342 q=-0.0 size=N/A time=00:20:14.04 bitrate=N/A speed=14.3x    frame=29279 fps=342 q=-0.0 size=N/A time=00:20:21.17 bitrate=N/A speed=14.3x    frame=29455 fps=342 q=-0.0 size=N/A time=00:20:28.51 bitrate=N/A speed=14.3x    frame=29627 fps=342 q=-0.0 size=N/A time=00:20:35.69 bitrate=N/A speed=14.3x    frame=29794 fps=342 q=-0.0 size=N/A time=00:20:42.65 bitrate=N/A speed=14.3x    frame=29966 fps=342 q=-0.0 size=N/A time=00:20:49.83 bitrate=N/A speed=14.2x    frame=30135 fps=342 q=-0.0 size=N/A time=00:20:56.88 bitrate=N/A speed=14.2x    frame=30315 fps=342 q=-0.0 size=N/A time=00:21:04.38 bitrate=N/A speed=14.2x    frame=30492 fps=342 q=-0.0 size=N/A time=00:21:11.77 bitrate=N/A speed=14.2x    frame=30673 fps=342 q=-0.0 size=N/A time=00:21:19.31 bitrate=N/A speed=14.2x    frame=30855 fps=342 q=-0.0 size=N/A time=00:21:26.91 bitrate=N/A speed=14.3x    frame=31035 fps=342 q=-0.0 size=N/A time=00:21:34.41 bitrate=N/A speed=14.3x    frame=31217 fps=342 q=-0.0 size=N/A time=00:21:42.00 bitrate=N/A speed=14.3x    frame=31391 fps=342 q=-0.0 size=N/A time=00:21:49.26 bitrate=N/A speed=14.3x    frame=31569 fps=342 q=-0.0 size=N/A time=00:21:56.69 bitrate=N/A speed=14.3x    frame=31754 fps=342 q=-0.0 size=N/A time=00:22:04.40 bitrate=N/A speed=14.3x    frame=31924 fps=342 q=-0.0 size=N/A time=00:22:11.49 bitrate=N/A speed=14.3x    frame=32098 fps=342 q=-0.0 size=N/A time=00:22:18.75 bitrate=N/A speed=14.3x    frame=32275 fps=342 q=-0.0 size=N/A time=00:22:26.13 bitrate=N/A speed=14.3x    frame=32454 fps=342 q=-0.0 size=N/A time=00:22:33.60 bitrate=N/A speed=14.3x    frame=32629 fps=342 q=-0.0 size=N/A time=00:22:40.90 bitrate=N/A speed=14.3x    frame=32779 fps=342 q=-0.0 size=N/A time=00:22:47.15 bitrate=N/A speed=14.2x    frame=32940 fps=341 q=-0.0 size=N/A time=00:22:53.87 bitrate=N/A speed=14.2x    frame=33115 fps=341 q=-0.0 size=N/A time=00:23:01.17 bitrate=N/A speed=14.2x    frame=33295 fps=341 q=-0.0 size=N/A time=00:23:08.67 bitrate=N/A speed=14.2x    frame=33462 fps=341 q=-0.0 size=N/A time=00:23:15.64 bitrate=N/A speed=14.2x    frame=33607 fps=341 q=-0.0 size=N/A time=00:23:21.69 bitrate=N/A speed=14.2x    frame=33760 fps=341 q=-0.0 size=N/A time=00:23:28.07 bitrate=N/A speed=14.2x    frame=33883 fps=340 q=-0.0 size=N/A time=00:23:33.20 bitrate=N/A speed=14.2x    frame=34045 fps=340 q=-0.0 size=N/A time=00:23:39.96 bitrate=N/A speed=14.2x    frame=34208 fps=340 q=-0.0 size=N/A time=00:23:46.75 bitrate=N/A speed=14.2x    frame=34346 fps=340 q=-0.0 size=N/A time=00:23:52.51 bitrate=N/A speed=14.2x    frame=34480 fps=339 q=-0.0 size=N/A time=00:23:58.10 bitrate=N/A speed=14.2x    frame=34661 fps=339 q=-0.0 size=N/A time=00:24:05.65 bitrate=N/A speed=14.2x    [Parsed_ssim_16 @ 0000025679d5a200] SSIM Y:0.993764 (22.051130) U:0.993997 (22.215974) V:0.993601 (21.938982) All:0.993776 (22.059162)
[out#0/null @ 000002567297dec0] video:14903KiB audio:271276KiB subtitle:0KiB other streams:0KiB global headers:0KiB muxing overhead: unknown
frame=34683 fps=339 q=-0.0 Lsize=N/A time=00:24:06.57 bitrate=N/A speed=14.2x    
